<?xml version="1.0"?>
<svg width="16" height="16" xmlns="http://www.w3.org/2000/svg" xmlns:svg="http://www.w3.org/2000/svg">
 <g class="layer">
  <title>Layer 1</title>
  <g id="svg_1">
   <path d="m15,5.6l-4.6,-4.6a3.4,3.4 0 0 0 -4.62,-0.14l1.88,1.88a1.25,1.25 0 0 1 1.67,1.2l0,0.06a1.23,1.23 0 0 1 -0.08,0.38l2.45,2.4a1.17,1.17 0 0 1 0.37,-0.08a1.3,1.3 0 1 1 -1.3,1.3l0,0a1.17,1.17 0 0 1 0.08,-0.37l-2.25,-2.25l0,5.23a1.28,1.28 0 0 1 0.73,1.15a1.3,1.3 0 0 1 -2.6,0a1.27,1.27 0 0 1 0.67,-1.11l0,-5.58a1.27,1.27 0 0 1 -0.67,-1.07a1.17,1.17 0 0 1 0.08,-0.37l-1.9,-1.9l-3.91,3.87a3.38,3.38 0 0 0 0,4.79l0,0l4.6,4.61a3.38,3.38 0 0 0 4.79,0l0,0l4.61,-4.6a3.38,3.38 0 0 0 0,-4.79l0,-0.01z" fill="#9ca3af" id="svg_2"/>
  </g>
 </g>
</svg>
