<?xml version="1.0"?>
<svg width="16" height="16" xmlns="http://www.w3.org/2000/svg" xmlns:svg="http://www.w3.org/2000/svg">
 <g class="layer">
  <title>Layer 1</title>
  <path clip-rule="nonzero" d="m7.58638,0.102166c0.23352,-0.136221 0.52229,-0.136221 0.75581,0l6.21431,3.625004c0.2304,0.1344 0.3721,0.38108 0.3721,0.64783l0,7.25c0,0.2668 -0.1417,0.5134 -0.3721,0.6478l-6.21431,3.625c-0.23352,0.1363 -0.52229,0.1363 -0.75581,0l-1.55357,-0.9062c-0.35779,-0.2087 -0.47864,-0.668 -0.26993,-1.0258c0.20871,-0.3577 0.66795,-0.4786 1.02574,-0.2699l1.17567,0.6858l5.46431,-3.1875l0,-6.38842l-5.46431,-3.1875l-5.46429,3.1875l0,6.38842l1.1168,0.6515c0.34418,0.1104 0.76931,0.1374 1.06896,0.005c0.13901,-0.0614 0.26455,-0.1614 0.36392,-0.34c0.10458,-0.188 0.20032,-0.5009 0.20032,-1.0107l0,-5.25c0,-0.41421 0.33579,-0.75 0.75,-0.75c0.41421,0 0.75,0.33579 0.75,0.75l0,5.25c0,0.6902 -0.12896,1.2716 -0.38953,1.7399c-0.26576,0.4777 -0.64581,0.7961 -1.06855,0.9829c-0.8063,0.3562 -1.69669,0.2102 -2.24193,0.0143c-0.04313,-0.0155 -0.08474,-0.0349 -0.12432,-0.058l-1.55357,-0.9063c-0.23042,-0.1344 -0.3721,-0.381 -0.3721,-0.6478l0,-7.25c0,-0.26675 0.14168,-0.51343 0.3721,-0.64783l6.21428,-3.625004zm0.66017,5.181064c0.39684,-0.47242 1.01663,-0.78323 1.85765,-0.78323c0.7805,0 1.375,0.26756 1.7773,0.69314c0.2845,0.30103 0.2712,0.77571 -0.0299,1.06024c-0.301,0.28454 -0.7757,0.27117 -1.0602,-0.02986c-0.0876,-0.09265 -0.2712,-0.22352 -0.6872,-0.22352c-0.44238,0 -0.62468,0.14753 -0.70909,0.24802c-0.10896,0.12972 -0.14511,0.29382 -0.14511,0.37698c0,0.08316 0.03615,0.24726 0.14511,0.37698c0.08441,0.10049 0.26671,0.24802 0.70909,0.24802c0.074,0 0.1455,0.01073 0.2131,0.03072c0.6195,0.08929 1.0916,0.36712 1.4153,0.75251c0.3723,0.4432 0.4966,0.9666 0.4966,1.34177c0,0.37517 -0.1243,0.8986 -0.4966,1.3418c-0.3968,0.4724 -1.0166,0.7832 -1.85759,0.7832c-0.78051,0 -1.37505,-0.2676 -1.77733,-0.6931c-0.28453,-0.3011 -0.27116,-0.7758 0.02987,-1.06028c0.30102,-0.28454 0.7757,-0.27116 1.06024,0.02986c0.08757,0.09265 0.27121,0.22352 0.68722,0.22352c0.44239,0 0.62469,-0.14753 0.70909,-0.24802c0.1089,-0.12972 0.1451,-0.29382 0.1451,-0.37698c0,-0.08316 -0.0362,-0.24726 -0.1451,-0.37698c-0.0844,-0.10049 -0.2667,-0.24802 -0.70909,-0.24802c-0.07404,0 -0.14558,-0.01073 -0.21313,-0.03072c-0.61951,-0.08929 -1.0916,-0.36712 -1.41533,-0.75251c-0.37228,-0.4432 -0.49655,-0.9666 -0.49655,-1.34177c0,-0.37517 0.12427,-0.89857 0.49655,-1.34177z" fill="#9ca3af" fill-rule="nonzero" id="svg_1"/>
 </g>
</svg>
