<?xml version="1.0"?>
<svg width="512" height="512" xmlns="http://www.w3.org/2000/svg" xmlns:svg="http://www.w3.org/2000/svg">
 <g class="layer">
  <title>Layer 1</title>
  <g id="5151e0c8492e5103c096af88a51ec286">
   <path d="m194.734,246.879l121.768,0c33.9,0 60.956,-27.908 60.956,-61.95l0,-116.083c0,-33.035 -27.87,-57.855 -60.956,-63.371c-20.943,-3.484 -42.673,-5.069 -63.51,-4.971c-20.845,0.097 -40.74,1.874 -58.258,4.971c-51.586,9.117 -60.952,28.191 -60.952,63.371l0,46.463l121.908,0l0,15.486l-121.908,0l-45.75,0c-35.434,0 -66.459,21.295 -76.158,61.808c-11.192,46.435 -11.694,75.409 0,123.898c8.666,36.088 29.359,61.807 64.79,61.807l41.917,0l0,-55.699c0,-40.239 34.809,-75.73 76.153,-75.73zm-7.671,-162.546c-12.636,0 -22.877,-10.355 -22.877,-23.161c0,-12.849 10.241,-23.3 22.877,-23.3c12.594,0 22.873,10.451 22.873,23.3c0,12.807 -10.278,23.161 -22.873,23.161zm312.307,108.27c-8.761,-35.27 -25.484,-61.808 -60.96,-61.808l-45.75,0l0,54.134c0,41.972 -35.582,77.292 -76.158,77.292l-121.768,0c-33.349,0 -60.952,28.547 -60.952,61.954l0,116.079c0,33.037 28.726,52.476 60.952,61.943c38.589,11.353 75.59,13.409 121.768,0c30.688,-8.876 60.956,-26.764 60.956,-61.943l0,-46.461l-121.768,0l0,-15.486l121.768,0l60.952,0c35.431,0 48.638,-24.715 60.96,-61.807c12.722,-38.186 12.179,-74.911 0,-123.897zm-175.192,232.163c12.64,0 22.873,10.356 22.873,23.156c0,12.85 -10.233,23.305 -22.873,23.305c-12.595,0 -22.877,-10.455 -22.877,-23.305c0,-12.8 10.282,-23.156 22.877,-23.156z" display="inline" fill="#9ca3af" id="svg_1"/>
  </g>
 </g>
</svg>
